<?xml version="1.0" encoding="utf-8"?>
<!-- Generator: Adobe Illustrator 25.4.1, SVG Export Plug-In . SVG Version: 6.00 Build 0)  -->
<svg version="1.1" id="Layer_1" xmlns="http://www.w3.org/2000/svg" xmlns:xlink="http://www.w3.org/1999/xlink" x="0px" y="0px"
	 viewBox="0 0 8 8" style="enable-background:new 0 0 8 8;" xml:space="preserve">
<style type="text/css">
	.st0{fill:#0A66C2;}
</style>
<path class="st0" d="M4,0C1.8,0,0,1.8,0,4s1.8,4,4,4s4-1.8,4-4S6.2,0,4,0z M4,1c0.3,0,0.6,0.1,0.9,0.2C4.7,1.4,4.5,1.6,4.5,1.8
	s0.7,0.1,0.7,0.5c0,0.3-0.4,0.3-0.1,0.7c0.3,0.3-0.6,1-0.7,1.4c0,0.8,0.8,1,1.5,1c0.4,0,0.5,0.2,0.5,0.4C5.9,6.5,5,7,4,7
	C3.6,7,3.3,6.9,2.9,6.8c0.2-0.4-0.3-1.3-0.8-1.6C2,5,1.5,5.1,1.2,5C1.1,4.7,1,4.4,1,4.1C1,4.1,1.1,4,1.2,4c0.2,0,0.5,0.4,0.6,0.3
	c0.2,0-0.7-1.3-0.3-1.6C1.6,2.7,2,3.2,1.9,2.6C1.8,2.1,2.3,2.4,2.6,2.2C2.8,2.1,3,1.8,2.7,1.6c-0.1,0-0.1-0.1-0.2-0.2
	C2.9,1.2,3.4,1,4,1L4,1z M6.3,2.1c0.2,0.2,0.3,0.5,0.4,0.7c0,0,0,0,0,0c0,0.1-0.1,0.1-0.2,0.2C6.2,3.3,6.2,2.9,6.1,2.8
	C6,2.6,5.5,2.8,5.4,2.6C5.4,2.4,5.9,2.2,6.3,2.1z"/>
</svg>
